<svg width="30" height="30" viewBox="0 0 30 30" fill="none" xmlns="http://www.w3.org/2000/svg">
<path d="M27.1788 15.4138L15.9288 2.91375C15.455 2.38625 14.545 2.38625 14.0713 2.91375L2.82125 15.4138C2.65932 15.5932 2.55303 15.8159 2.51531 16.0547C2.47758 16.2935 2.51005 16.5381 2.60875 16.7588C2.80875 17.21 3.25625 17.5 3.75 17.5H6.25V26.25C6.25 26.5815 6.3817 26.8995 6.61612 27.1339C6.85054 27.3683 7.16848 27.5 7.5 27.5H11.25C11.5815 27.5 11.8995 27.3683 12.1339 27.1339C12.3683 26.8995 12.5 26.5815 12.5 26.25V21.25H17.5V26.25C17.5 26.5815 17.6317 26.8995 17.8661 27.1339C18.1005 27.3683 18.4185 27.5 18.75 27.5H22.5C22.8315 27.5 23.1495 27.3683 23.3839 27.1339C23.6183 26.8995 23.75 26.5815 23.75 26.25V17.5H26.25C26.4921 17.501 26.7292 17.4316 26.9325 17.3002C27.1359 17.1688 27.2965 16.981 27.395 16.7599C27.4934 16.5387 27.5254 16.2937 27.487 16.0547C27.4486 15.8156 27.3415 15.593 27.1788 15.4138Z" fill="url(#paint0_linear_85_69)"/>
<defs>
<linearGradient id="paint0_linear_85_69" x1="15.0014" y1="2.51812" x2="3.31088" y2="2.64243" gradientUnits="userSpaceOnUse">
<stop stop-color="#F1A51A"/>
<stop offset="1" stop-color="#ECAE0F"/>
</linearGradient>
</defs>
</svg>
