<svg width="30" height="30" viewBox="0 0 30 30" fill="none" xmlns="http://www.w3.org/2000/svg">
<path d="M27.1787 15.4138L15.9287 2.91375C15.455 2.38625 14.545 2.38625 14.0712 2.91375L2.82123 15.4138C2.6593 15.5932 2.55301 15.8159 2.51529 16.0547C2.47756 16.2935 2.51002 16.5381 2.60873 16.7588C2.80873 17.21 3.25623 17.5 3.74998 17.5H6.24998V26.25C6.24998 26.5815 6.38168 26.8995 6.6161 27.1339C6.85052 27.3683 7.16846 27.5 7.49998 27.5H11.25C11.5815 27.5 11.8994 27.3683 12.1339 27.1339C12.3683 26.8995 12.5 26.5815 12.5 26.25V21.25H17.5V26.25C17.5 26.5815 17.6317 26.8995 17.8661 27.1339C18.1005 27.3683 18.4185 27.5 18.75 27.5H22.5C22.8315 27.5 23.1494 27.3683 23.3839 27.1339C23.6183 26.8995 23.75 26.5815 23.75 26.25V17.5H26.25C26.4921 17.501 26.7292 17.4316 26.9325 17.3002C27.1358 17.1688 27.2965 16.981 27.395 16.7599C27.4934 16.5387 27.5254 16.2937 27.487 16.0547C27.4486 15.8156 27.3415 15.593 27.1787 15.4138Z" fill="#F4F4F4"/>
</svg>
