<svg width="23" height="25" viewBox="0 0 23 25" fill="none" xmlns="http://www.w3.org/2000/svg">
<path d="M22.5 22.5V5C22.5 3.62125 21.4037 2.5 20.0556 2.5H17.6111V0H15.1667V2.5H7.83333V0H5.38889V2.5H2.94444C1.59633 2.5 0.5 3.62125 0.5 5V22.5C0.5 23.8788 1.59633 25 2.94444 25H20.0556C21.4037 25 22.5 23.8788 22.5 22.5ZM7.83333 20H5.38889V17.5H7.83333V20ZM7.83333 15H5.38889V12.5H7.83333V15ZM12.7222 20H10.2778V17.5H12.7222V20ZM12.7222 15H10.2778V12.5H12.7222V15ZM17.6111 20H15.1667V17.5H17.6111V20ZM17.6111 15H15.1667V12.5H17.6111V15ZM20.0556 8.75H2.94444V6.25H20.0556V8.75Z" fill="url(#paint0_linear_244_1099)"/>
<defs>
<linearGradient id="paint0_linear_244_1099" x1="11.5" y1="-4.93101e-06" x2="1.21321" y2="0.0961673" gradientUnits="userSpaceOnUse">
<stop stop-color="#F1A51A"/>
<stop offset="1" stop-color="#ECAE0F"/>
</linearGradient>
</defs>
</svg>
